<?xml version="1.0" encoding="utf-8"?>
<!-- Generator: Adobe Illustrator 18.1.1, SVG Export Plug-In . SVG Version: 6.00 Build 0)  -->
<!DOCTYPE svg PUBLIC "-//W3C//DTD SVG 1.1//EN" "http://www.w3.org/Graphics/SVG/1.1/DTD/svg11.dtd">
<svg version="1.1" id="Layer_1" xmlns="http://www.w3.org/2000/svg" xmlns:xlink="http://www.w3.org/1999/xlink" x="0px" y="0px"
	 viewBox="0 0 50 124" enable-background="new 0 0 50 124" xml:space="preserve">
<path id="login-2-icon" fill="#BC9554" d="M3,66.5v-9h15.3v-4.5l9,8.9l-9,8.9v-4.5L3,66.5L3,66.5z M30.2,45.2
	c-3.9,0-7.4,1.3-10.3,3.5l3.1,3.1c2.1-1.5,4.6-2.3,7.2-2.3c3.4,0,6.5,1.3,8.9,3.7c2.4,2.4,3.7,5.5,3.7,8.9c0,3.4-1.3,6.5-3.7,8.9
	c-2.4,2.4-5.5,3.7-8.9,3.7c-2.6,0-5.1-0.8-7.2-2.3l-3.1,3.1c2.8,2.2,6.4,3.5,10.3,3.5C39.5,78.8,47,71.3,47,62S39.5,45.2,30.2,45.2z
	"/>
</svg>
