<?xml version="1.0" encoding="utf-8"?>
<!-- Generator: Adobe Illustrator 18.1.1, SVG Export Plug-In . SVG Version: 6.00 Build 0)  -->
<!DOCTYPE svg PUBLIC "-//W3C//DTD SVG 1.1//EN" "http://www.w3.org/Graphics/SVG/1.1/DTD/svg11.dtd">
<svg version="1.1" id="Layer_1" xmlns="http://www.w3.org/2000/svg" xmlns:xlink="http://www.w3.org/1999/xlink" x="0px" y="0px"
	 viewBox="0 0 50 70" enable-background="new 0 0 50 70" xml:space="preserve">
<g>
	<path fill="#BC9554" d="M34,37.8c-0.8,0-1.5-0.4-2.1-1.3l-0.3-0.5c-0.6,1.1-1.4,1.7-2.3,1.7c-1,0-1.8-0.6-2.4-1.8
		c-0.2-0.4-0.2-0.6-0.2-0.7c0-0.1,0-0.2,0.1-0.2c1.3,0,2-0.3,2.3-0.9c0.2-0.5,0.3-1.2,0.3-2.1v-6.5h-2c-0.8,2.8-1.1,4.9-1.1,6.3
		c0,0.4,0.1,0.8,0.2,1.3l0,0.1h-0.1c-0.9,0-1.6-0.7-2.1-2c-0.1,0.3-0.2,0.6-0.4,0.8c-0.4,0.7-1,1.1-1.8,1.1h-0.1v-0.1
		c0.1-0.4,0.1-0.8,0.1-1.3c0-1.3-0.4-3.4-1.1-6.3h-1.8v5.8c0,1.6,0.1,2.6,0.3,2.9c0,0.1,0.1,0.3,0.5,0.5c0.4,0.2,0.9,0.3,1.7,0.3
		h0.1l0,0.1c0,0.1,0,0.2,0,0.2c0,0.8-0.4,1.5-1.2,2.1c-0.4,0.2-0.7,0.3-1,0.3h-0.3c-0.6,0-1.1-0.4-1.7-1.2l-0.2-0.4
		c-0.5,1.1-1.2,1.6-2,1.6c-0.8,0-1.4-0.5-2.1-1.6c-0.2-0.5-0.3-0.9-0.3-1v0l0,0l0.1,0c1.2,0,1.9-0.3,2.2-0.8c0.2-0.3,0.3-0.7,0.3-1
		c0,0,0-0.1,0-0.1c-0.7,0.5-1.6,0.8-2.4,0.8c-0.7,0-1.3-0.1-1.9-0.4c-0.2-0.1-0.4-0.2-0.6-0.4c-0.3,0.2-0.6,0.4-1,0.5
		c-0.5,0.2-0.9,0.3-1.3,0.3H8.1c-0.6,0-1.2-0.1-1.7-0.4c-0.5-0.2-1-0.6-1.4-1.1L5,32.4l-0.1-0.1c-0.1-0.2-0.2-0.4-0.3-0.6
		c-0.1-0.2-0.1-0.4-0.1-0.7v-0.6l0.3-0.4l0.4-0.5h0.8c0.4,0,0.7,0,0.8-0.1c0.1,0,0.2,0,0.2-0.1c0-0.2,0.1-0.3,0.1-0.5
		c0-1.2,0-2.2,0-2.9V18c0-0.4,0-0.9,0-1.5l0.1-0.1l-0.1,0l0-0.8c0-0.3-0.1-0.4-0.1-0.5c-0.1,0-0.5-0.1-1-0.1l-0.8,0l-0.7-0.8l0-0.5
		v-0.1c0-0.4,0.1-0.8,0.3-1c0.1-0.2,0.3-0.4,0.5-0.7l0,0l0.1,0c0.8-0.8,1.9-1.2,2.9-1.2h0.2c0.7,0,1.3,0.2,1.8,0.5
		c0.1,0.1,0.2,0.1,0.3,0.2c0.1-0.1,0.2-0.1,0.3-0.2l0,0c0.6-0.3,1.3-0.5,2-0.5h0.1c0.7,0,1.4,0.1,1.9,0.4c0.2,0.1,0.4,0.2,0.6,0.4
		v-0.6c0-0.1,0-0.5,0-1c0-1.3-0.2-2.1-0.7-2.4c-0.4-0.3-1-0.4-1.7-0.4H13l0-0.1V6.5c0.1-0.6,0.4-1.2,0.8-1.6c0.5-0.4,1-0.6,1.4-0.6
		h0.2c0.6,0,1.3,0.4,1.8,1.3c0,0,0,0.1,0.1,0.2c0.4-1,1.1-1.5,1.9-1.5c0.8,0,1.6,0.5,2.1,1.5c0.2,0.4,0.3,0.6,0.3,0.9
		c0,0.1,0,0.2-0.1,0.2h-0.1c-0.6,0-0.9,0.1-1,0.4l0,0.1c0,0.2,0.2,1.1,0.6,2.6c1.2,4.8,2,8.5,2.7,11.1h2c2.2-8.5,3.2-12.4,3.2-12.7
		C28.9,8.1,29,7.9,29,7.7c0-0.4-0.4-0.7-1.3-0.8c-0.2,0-0.4,0-0.7,0h-0.4l0-0.1V6.6c0-0.6,0.3-1.2,1-1.8c0.5-0.4,1.1-0.5,1.6-0.5
		h0.1c0.9,0,1.7,0.5,2.3,1.5c0.3-0.6,0.7-1,1.3-1.3c0.3-0.1,0.5-0.2,0.8-0.2h0.2c0.7,0,1.4,0.4,2.1,1c0.3,0.5,0.5,0.9,0.5,1.2l0,0.3
		l-0.1,0h-0.1c-1.2,0-1.9,0.3-2.1,0.8c-0.1,0.2-0.2,0.7-0.3,1.5c0,0.1,0,0.2,0,0.3l0,2.4c0,0,0.1-0.1,0.1-0.1l0,0l0.1,0
		c0.8-0.8,1.9-1.2,2.9-1.2h0.2c0.7,0,1.3,0.2,1.8,0.5c0.1,0.1,0.2,0.1,0.3,0.2c0.1-0.1,0.2-0.1,0.3-0.2l0,0c0.6-0.3,1.3-0.5,2-0.5
		h0.1c0.7,0,1.4,0.1,1.9,0.4c0.6,0.3,1.1,0.8,1.4,1.3l0,0.1l0,0.1c0.1,0.1,0.1,0.3,0.2,0.4c0.1,0.2,0.1,0.3,0.1,0.6v0.4L45,15h-1
		c-0.5,0-0.7,0-0.9,0.1c-0.1,0-0.1,0-0.2,0c0,0,0,0.1,0,0.1c0,0.2-0.1,0.6-0.1,1l0,8.3l0,0.1l0,1.2c0,0.9,0,1.6,0,2.2
		c0,0.7,0.1,1.1,0.1,1.2c0,0,0,0,0,0c0,0,0.1,0,0.1,0c0.2,0.1,0.6,0.1,1,0.1h0.9l0.6,1l0,0.4V31l0,0.1c-0.1,0.5-0.3,1.1-0.8,1.6
		l0,0.1l-0.1,0.1c-0.7,0.7-1.8,1.1-2.8,1.1c-0.7,0-1.3-0.1-1.9-0.4c-0.2-0.1-0.4-0.2-0.6-0.4c-0.3,0.2-0.6,0.4-1,0.5
		c-0.5,0.2-0.9,0.3-1.3,0.3h-0.3c-0.6,0-1.2-0.1-1.7-0.4c-0.4-0.2-0.8-0.5-1.1-0.8c0,0.4,0.1,0.9,0.2,1.3c0.1,0.4,0.3,0.6,0.7,0.8
		c0.4,0.2,0.9,0.3,1.6,0.3h0.1l0,0.1c0,1.2-0.5,2.1-1.5,2.5c-0.3,0.1-0.5,0.1-0.7,0.1H34z M34.5,30.9c0,0.2,0.1,0.4,0.2,0.7
		c0.5,0.6,1.2,0.9,2,0.9H37c0.3,0,0.5-0.1,0.9-0.2c0.7-0.3,1.1-0.6,1.3-1.1l0,0h0.1l0,0.1c0,0,0,0,0,0c0,0,0,0,0.1,0.2
		c0.6,0.7,1.4,1.1,2.3,1.1c0.8,0,1.4-0.2,1.9-0.7c0.3-0.3,0.4-0.6,0.4-0.8l0-0.2l-0.1,0c-1.1,0-1.7-0.2-2.1-0.5
		c-0.3-0.2-0.5-1-0.5-2.2c0-0.6,0-1.3,0-2.2l0-0.1c0,0,0-9.5,0-9.6c0-1.1,0.1-1.7,0.4-2c0.3-0.4,1-0.6,2.3-0.6h0.1v-0.1
		c0-0.1,0-0.2-0.2-0.5c-0.5-0.7-1.2-1.1-2.2-1.1h-0.1c-0.5,0-0.9,0.1-1.4,0.3c-0.3,0.1-0.7,0.4-1,0.8l-0.1,0.1l-0.1-0.1
		c-0.5-0.8-1.2-1.1-2-1.1H37c-0.7,0-1.4,0.3-2,0.8c-0.4,0.4-0.5,0.6-0.5,0.8v0.1h0.1c0.8,0,1.4,0.1,1.8,0.3c0.4,0.2,0.7,0.7,0.7,1.7
		c0,0.3,0,0.6,0,0.9c0,0.6,0,1.1,0,1.5v4.4h-3.4v1.7h3.4v1.7c0,0.7,0,1.7,0,2.9c0,0.4-0.1,0.9-0.3,1.3c-0.3,0.5-1,0.8-2.2,0.8h-0.2
		L34.5,30.9z M5.9,30.9c0,0.2,0.1,0.4,0.2,0.7c0.5,0.6,1.2,0.9,2,0.9h0.3c0.3,0,0.5-0.1,0.9-0.2c0.7-0.3,1.1-0.6,1.3-1.1l0,0h0.1
		l0,0.1c0,0,0,0,0,0c0,0,0,0,0.1,0.2c0.6,0.7,1.4,1.1,2.3,1.1c0.8,0,1.4-0.2,1.9-0.7c0.3-0.3,0.4-0.6,0.4-0.8l0-0.2l-0.1,0
		c-1.1,0-1.7-0.2-2.1-0.5c-0.3-0.2-0.5-1-0.5-2.2c0-0.6,0-1.3,0-2.2l0-0.1l0-1.7h7.8l-0.5-1.7h-7.3l0-0.1c0-2.7,0-6.1,0-6.1
		c0-1,0.1-1.7,0.4-2c0.3-0.4,1-0.6,2.3-0.6h0.1v-0.1c0-0.1,0-0.2-0.2-0.5c-0.5-0.7-1.2-1.1-2.2-1.1h-0.1c-0.5,0-0.9,0.1-1.4,0.3
		c-0.3,0.1-0.7,0.4-1,0.8l-0.1,0.1l-0.1-0.1c-0.5-0.8-1.2-1.1-2-1.1H8.4c-0.7,0-1.4,0.3-2,0.8c-0.4,0.4-0.5,0.6-0.5,0.8v0.1H6
		c0.8,0,1.4,0.1,1.8,0.3c0.4,0.2,0.7,0.7,0.7,1.7l0,0.9c0,0.6,0,1.1,0,1.5v7.8c0,0.7,0,1.7,0,2.9c0,0.4-0.1,0.9-0.3,1.3
		c-0.3,0.5-1,0.8-2.2,0.8H5.9L5.9,30.9z M33.8,29.4L33.8,29.4l0.8,0c0.3,0,0.6,0,0.8-0.1c0.1,0,0.2,0,0.2-0.1c0-0.2,0.1-0.3,0.1-0.5
		c0-1.2,0-2.2,0-2.9v-0.3h-2C33.8,25.6,33.8,28.4,33.8,29.4z M14.3,29.2c0,0,0.1,0,0.1,0c0.2,0.1,0.6,0.1,1,0.1h0.3v-3.8h-1.5l0,0.3
		c0,0.9,0,1.6,0,2.2C14.2,28.7,14.3,29.1,14.3,29.2z M29.3,24.2v-1.7h-5.4l0.4,1.7H29.3z M35.8,21v-3c0-0.4,0-0.9,0-1.5
		c0-0.3,0-0.6,0-0.8c0-0.3-0.1-0.4-0.1-0.5c-0.1,0-0.5-0.1-1-0.1l-0.8,0l0,0V21H35.8z M29.3,21v-2c-0.1,0.5-0.3,1.1-0.6,2H29.3z
		 M19.6,21c-0.2-0.7-0.4-1.3-0.5-1.7V21H19.6z M15.7,21c0-2,0-4.1,0-6h-0.3c-0.5,0-0.7,0-0.9,0.1c-0.1,0-0.2,0-0.2,0
		c0,0,0,0.1,0,0.1c0,0.2-0.1,0.6-0.1,1l0,4.8H15.7z"/>
	<g>
		<rect x="12" y="48.9" fill="#BC9554" width="26" height="3"/>
		<rect x="12" y="55.8" fill="#BC9554" width="26" height="3"/>
		<rect x="12" y="62.7" fill="#BC9554" width="26" height="3"/>
	</g>
</g>
</svg>
